<?xml version="1.0" encoding="utf-8"?>
<svg xmlns="http://www.w3.org/2000/svg" viewBox="0 0 50 50" width="500" height="500">
  <path d="M31 42c-.256 0-.512-.098-.707-.293l-1-1c-.305-.304-.38-.769-.188-1.154l4-8c.097-.193.254-.351.447-.447l8-4c.386-.19.849-.117 1.154.188l1 1c.391.391.391 1.023 0 1.414l-12 12C31.512 41.902 31.256 42 31 42zM31.316 30.658c.289-.577.765-1.053 1.342-1.342l2.634-1.317L16.74 7.33c-.11-.13-.26-.22-.42-.28l-9-3C6.96 3.93 6.56 4.03 6.29 4.29 6.03 4.56 5.93 4.96 6.05 5.32l3 9c.06.16.15.31.28.42l20.711 18.47L31.316 30.658zM18.293 41.707l-12-12c-.391-.391-.391-1.023 0-1.414l1-1c.306-.305.769-.377 1.154-.188l8 4c.193.097.351.254.447.447l4 8c.192.385.117.85-.188 1.154l-1 1C19.511 41.902 19.255 42 19 42S18.488 41.902 18.293 41.707zM43.71 4.29c-.27-.26-.67-.36-1.03-.24l-9 3c-.16.06-.31.15-.42.28l-6.916 7.706 6.222 6.932 8.104-7.227c.13-.11.22-.26.28-.42l3-9C44.07 4.96 43.97 4.56 43.71 4.29zM17.591 24.787l-2.883 3.212 2.634 1.317c.577.289 1.053.765 1.342 1.342l1.276 2.552 3.538-3.155L17.591 24.787zM5 40A3 3 0 1 0 5 46 3 3 0 1 0 5 40z" fill="#FFFFFF" />
  <path d="M5 41c1.105 0 2 .895 2 2 0 .183-.033.357-.079.525l5.981-4.381L8.88 35.122 4.601 41.04C4.73 41.014 4.863 41 5 41zM43 43c0-1.105.895-2 2-2 .136 0 .269.014.398.04l-4.279-5.917-4.022 4.022 5.981 4.381C43.033 43.357 43 43.183 43 43z" fill="#FFFFFF" />
  <path d="M45 40A3 3 0 1 0 45 46A3 3 0 1 0 45 40Z" fill="#FFFFFF" />
</svg>