<?xml version="1.0" encoding="utf-8"?>
<svg xmlns="http://www.w3.org/2000/svg" viewBox="0 0 50 50" width="500" height="500">
  <path fill="none" stroke="#FFFFFF" stroke-width="4" d="M46,33v11.907C46,45.511,45.511,46,44.907,46H5.093C4.489,46,4,45.511,4,44.907V33" />
  <path fill="none" stroke="#FFFFFF" stroke-linecap="round" stroke-linejoin="round" stroke-width="4" d="M25 17L25 39M32 32L25 39 18 32" />
  <path d="M25 3A2 2 0 1 0 25 7 2 2 0 1 0 25 3zM25 9A2 2 0 1 0 25 13 2 2 0 1 0 25 9z" fill="#FFFFFF" />
</svg>