<?xml version="1.0" encoding="utf-8"?>
<svg xmlns="http://www.w3.org/2000/svg" viewBox="0 0 50 50" width="500" height="500">
  <path d="M25,16c-4.962,0-9,4.038-9,9c0,4.963,4.038,9,9,9c4.963,0,9-4.037,9-9C34,20.038,29.963,16,25,16z M25,28c-1.657,0-3-1.343-3-3s1.343-3,3-3s3,1.343,3,3S26.657,28,25,28z" fill="#FFFFFF" />
  <path fill="#FFFFFF" d="M42.688,10.296l-1.192-1.434l-7.664,5.514l2.336,3.247l4.563-3.282C42.85,17.472,44,21.193,44,25c0,10.477-8.523,19-19,19S6,35.477,6,25S14.523,6,25,6c3.532,0,7.062,1.008,10,2.848l3.302-2.615C34.521,3.504,29.798,2,25,2C12.318,2,2,12.318,2,25c0,12.683,10.318,23,23,23c12.683,0,23-10.317,23-23C48,19.637,46.113,14.416,42.688,10.296z" />
</svg>