<?xml version="1.0" encoding="utf-8"?>
<svg xmlns="http://www.w3.org/2000/svg" width="500" height="500" viewBox="0 0 50 50">
  <path d="M29.645,31.073c-0.106-1.584-0.106-2.641-0.106-4.013c0.739-0.316,1.901-2.744,2.111-4.644c0.527,0,1.372-0.633,1.69-2.745c0.105-1.162-0.318-1.9-0.739-2.005c1.688-2.111,1.372-10.768-4.856-10.768L26.899,5c-8.866,0-12.139,6.861-9.604,12.667c-0.317,0.211-0.845,0.844-0.739,2.005c0.211,2.111,1.161,2.639,1.689,2.745c0.21,2.005,1.478,4.327,2.216,4.644c0,1.372,0,2.534-0.105,4.013C18.738,35.32,8.398,34.335,7.071,41.95C7.013,42.283,7.332,43,8.016,43C13.79,43,41.092,43,42,43c1.016,0,0.983-0.738,0.923-1.081C41.572,34.338,31.261,35.314,29.645,31.073z" fill="#FFFFFF" />
  <path d="M40.141 29.609c-.108-1.18-.103-1.074-.103-2.252.536-.322 1.503-2.142 1.609-3.644.43 0 1.073-.429 1.288-2.142.106-.857-.215-1.5-.537-1.607 1.288-1.714 1.074-8.465-3.755-8.465L38 10c-.958 0-2.086.071-3.158.241.799 2.347.832 5.164.125 7.166.311.688.448 1.532.365 2.446l-.006.059-.009.059c-.296 1.964-1.034 3.171-1.89 3.823-.323 1.351-.967 3.044-1.889 4.143.004.86.019 1.637.077 2.628.536.851 2.314 1.551 4.038 2.23 3.128 1.232 7.285 2.884 8.815 7.205 1.686 0 3.927 0 4.53 0 1 0 1-.984 1-.984C50 31.281 41.428 33.145 40.141 29.609zM14.346 32.795c1.725-.68 3.505-1.381 4.04-2.232.057-.928.071-1.73.075-2.604-.951-1.084-1.664-2.777-2.007-4.217-.813-.601-1.674-1.739-1.889-3.888-.093-1.019.115-1.87.464-2.535-.792-2.465-.732-5.037.134-7.309-6.677.114-9.62 5.426-7.614 9.968-.213.106-.64.641-.533 1.601.214 1.709.854 2.136 1.282 2.136.212 1.601 1.174 3.417 1.707 3.737 0 1.066 0 1.019-.106 2.298C9.031 32.484 0 32.281 0 39c0 0 0 1 1 1 .606 0 2.851 0 4.529 0C7.057 35.679 11.215 34.028 14.346 32.795z" fill="#FFFFFF" />
</svg>