<svg viewBox="44.5 5 123 123" fill="none"
    xmlns="http://www.w3.org/2000/svg">
    <path fill-rule="evenodd" clip-rule="evenodd"
        d="M102.778 11.7278C102.778 8.32766 99.9469 5.57686 96.5805 6.05398C96.0996 6.12213 95.6206 6.19603 95.1435 6.27561C92.4267 6.72878 90.5555 9.16161 90.5555 11.916V61.0181C90.5555 62.859 89.0632 64.3514 87.2222 64.3514V64.3514C85.3813 64.3514 83.8889 62.859 83.8889 61.0181V18.0111C83.8889 13.812 79.6811 10.939 76.0141 12.9849C57.5223 23.3018 45 43.184 45 66.018C45 99.4619 71.8629 126.574 105 126.574C138.137 126.574 165 99.4619 165 66.018C165 54.41 161.764 43.5648 156.152 34.3514C153.372 29.7864 147.222 32.1307 147.222 37.4756V56.5736C147.222 58.4146 145.73 59.9069 143.889 59.9069V59.9069C142.048 59.9069 140.556 58.4146 140.556 56.5736V20.2507C140.556 18.3536 139.669 16.5518 138.092 15.4975C137.529 15.1211 136.959 14.754 136.383 14.3965C132.727 12.1277 128.333 14.9905 128.333 19.2933V82.1292C128.333 83.9701 126.841 85.4625 125 85.4625V85.4625C123.159 85.4625 121.667 83.9701 121.667 82.1292V12.3312C121.667 9.66361 119.911 7.28514 117.301 6.73621C116.819 6.63485 116.335 6.53933 115.848 6.44972C112.418 5.81752 109.444 8.59793 109.444 12.0858V99.9069C109.444 99.9756 109.442 100.044 109.438 100.111C109.442 100.228 109.444 100.345 109.444 100.463C109.444 106.906 103.226 112.129 95.5556 112.129C87.8849 112.129 81.6667 106.906 81.6667 100.463C81.6667 94.0192 87.8849 88.7958 95.5556 88.7958V88.7958C98.9782 88.7958 102.778 86.429 102.778 83.0063V11.7278ZM140.556 69.9069C140.556 68.066 142.048 66.5736 143.889 66.5736V66.5736C145.73 66.5736 147.222 68.066 147.222 69.9069V72.1292C147.222 73.9701 145.73 75.4625 143.889 75.4625V75.4625C142.048 75.4625 140.556 73.9701 140.556 72.1292V69.9069Z"
        fill="#F46197" />
</svg>